<?xml version="1.0" standalone="no"?>
<!DOCTYPE svg PUBLIC "-//W3C//DTD SVG 20010904//EN"
 "http://www.w3.org/TR/2001/REC-SVG-20010904/DTD/svg10.dtd">
<svg version="1.0" xmlns="http://www.w3.org/2000/svg"
 width="300.000000pt" height="300.000000pt" viewBox="0 0 300.000000 300.000000"
 preserveAspectRatio="xMidYMid meet">
<metadata>
Created by potrace 1.14, written by Peter Selinger 2001-2017
</metadata>
<g transform="translate(0.000000,300.000000) scale(0.100000,-0.100000)"
fill="#000000" stroke="none">
<path d="M1361 2491 l-132 -319 -122 50 c-67 28 -212 88 -322 134 -110 46
-201 81 -203 79 -2 -2 55 -146 127 -320 72 -174 131 -320 131 -323 0 -4 -142
-66 -314 -137 -173 -72 -315 -134 -315 -140 0 -5 142 -68 315 -140 172 -71
314 -133 314 -137 0 -3 -59 -149 -131 -323 -72 -174 -129 -318 -127 -320 2 -2
93 33 203 79 110 46 255 106 322 134 l122 50 132 -319 c73 -175 135 -319 139
-319 4 0 66 144 139 319 l132 319 122 -50 c67 -28 212 -88 322 -134 110 -46
201 -81 203 -79 2 2 -55 146 -127 320 -72 174 -131 320 -131 323 0 4 142 66
314 137 173 72 315 135 315 140 0 6 -142 68 -315 140 -172 71 -314 133 -314
137 0 3 59 149 131 323 72 174 129 318 127 320 -2 2 -93 -33 -203 -79 -110
-46 -255 -106 -322 -134 l-122 -50 -132 319 c-73 175 -135 319 -139 319 -4 0
-66 -144 -139 -319z m189 -1026 c0 -8 -2 -15 -4 -15 -2 0 -6 7 -10 15 -3 8 -1
15 4 15 6 0 10 -7 10 -15z m40 -5 c8 -5 11 -10 5 -10 -5 0 -17 5 -25 10 -8 5
-10 10 -5 10 6 0 17 -5 25 -10z m10 -125 c0 -5 -5 -3 -10 5 -5 8 -10 20 -10
25 0 6 5 3 10 -5 5 -8 10 -19 10 -25z m520 -95 c8 -5 12 -11 10 -14 -3 -2 -14
2 -24 10 -22 15 -10 19 14 4z m130 -305 c0 -5 -5 -3 -10 5 -5 8 -10 20 -10 25
0 6 5 3 10 -5 5 -8 10 -19 10 -25z m-310 -105 c8 -5 11 -10 5 -10 -5 0 -17 5
-25 10 -8 5 -10 10 -5 10 6 0 17 -5 25 -10z m380 -65 c0 -5 -5 -3 -10 5 -5 8
-10 20 -10 25 0 6 5 3 10 -5 5 -8 10 -19 10 -25z m50 -115 c0 -5 -2 -10 -4
-10 -3 0 -8 5 -11 10 -3 6 -1 10 4 10 6 0 11 -4 11 -10z"/>
</g>
</svg>
